<svg width="218" height="243" viewBox="0 0 218 243" fill="none" xmlns="http://www.w3.org/2000/svg">
<mask id="mask0_294_1722" style="mask-type:alpha" maskUnits="userSpaceOnUse" x="0" y="0" width="218" height="243">
<path d="M22.3938 182.678C34.4598 188.609 47.3439 192.954 61.046 195.715C74.8504 198.374 88.2968 199.703 101.385 199.703C113.042 199.703 123.115 198.783 131.602 196.942C140.089 194.999 147.093 192.392 152.615 189.12C158.137 185.848 162.227 181.962 164.886 177.463C167.544 172.964 168.873 168.107 168.873 162.892C168.873 155.836 166.47 149.547 161.665 144.026C156.859 138.402 149.547 134.209 139.731 131.448C130.017 128.585 117.695 127.46 102.766 128.074C87.9389 128.687 70.4534 131.602 50.3093 136.817L50.4626 100.925L140.038 42.6402H13.1908V0H205.072V41.7199L126.233 91.7224C140.651 91.7224 153.535 93.5629 164.886 97.2441C176.236 100.925 185.797 105.987 193.568 112.429C201.339 118.871 207.27 126.489 211.36 135.283C215.45 144.077 217.495 153.535 217.495 163.658C217.495 175.622 214.837 186.512 209.52 196.329C204.305 206.043 196.687 214.377 186.666 221.33C176.645 228.181 164.374 233.498 149.854 237.282C135.436 241.065 119.075 242.957 100.772 242.957C81.3435 242.957 63.3978 240.912 46.9349 236.822C30.4719 232.629 14.8269 226.852 0 219.489L22.3938 182.678Z" fill="black"/>
</mask>
<g mask="url(#mask0_294_1722)">
<rect x="-13.7881" y="-4.23328" width="284.42" height="308.438" fill="#113046"/>
<path d="M50.839 264.806C22.8261 264.806 0.117187 242.097 0.117185 214.085L72.5916 214.085L72.5916 264.806L50.839 264.806Z" fill="#F4BF60"/>
<path d="M73 214L73 164L114 164C141.614 164 164 186.386 164 214L73 214Z" fill="#F4BF60"/>
<rect x="0.117188" y="214.084" width="50.3516" height="72.4744" transform="rotate(-90 0.117188 214.084)" fill="#E88431"/>
<path d="M-21 164L-21 61C-21 5.77151 23.7715 -39 79 -39L118 -39L118 164L-21 164Z" fill="#E88431"/>
<rect x="72.5918" y="302.57" width="88.4856" height="72.4744" transform="rotate(-90 72.5918 302.57)" fill="#D74339"/>
<rect x="145.066" y="264.806" width="50.7219" height="72.4744" transform="rotate(-90 145.066 264.806)" fill="#D74339"/>
<rect x="0.117188" y="62.289" width="50.3516" height="72.4744" transform="rotate(-90 0.117188 62.289)" fill="#D74339"/>
<rect x="145.066" y="214.084" width="50.3516" height="72.4744" transform="rotate(-90 145.066 214.084)" fill="#0F2F47"/>
<rect x="72.5918" y="11.9374" width="88.8558" height="72.4744" transform="rotate(-90 72.5918 11.9374)" fill="#F4BF60"/>
<path d="M145.066 11.9374L145.066 -76.9184C185.093 -76.9184 217.541 -44.4705 217.541 -4.44397L217.541 11.9374L145.066 11.9374Z" fill="#D74339"/>
<rect x="72.5918" y="62.2891" width="50.3516" height="144.949" transform="rotate(-90 72.5918 62.2891)" fill="#E88431"/>
<rect x="108.828" y="37.1132" width="50.7219" height="72.4744" rx="25.3609" transform="rotate(-90 108.828 37.1132)" fill="#F2ECE5"/>
<rect x="109.039" y="212.978" width="36.2372" height="88.8558" fill="#F4BF60"/>
<path d="M0.117188 163.733C0.117186 135.72 22.8261 113.011 50.839 113.011L145.066 113.011L145.066 163.733L0.117188 163.733Z" fill="#F4BF60"/>
<path d="M74.8609 245.722C60.8545 245.722 49.5 234.367 49.5 220.361C49.5 206.354 60.8545 195 74.8609 195L96.6135 195C110.62 195 121.974 206.354 121.974 220.361C121.974 234.367 110.62 245.722 96.6135 245.722L74.8609 245.722Z" fill="#0F2F47"/>
<rect x="97" y="164" width="102" height="121" transform="rotate(-90 97 164)" fill="#D74339"/>
<path d="M151.356 103.722L97.0006 154.444L97.0006 52.9999L151.356 103.722Z" fill="#E6DCCE"/>
</g>
</svg>
