<svg width="165" height="243" viewBox="0 0 165 243" fill="none" xmlns="http://www.w3.org/2000/svg">
<mask id="mask0_294_1785" style="mask-type:alpha" maskUnits="userSpaceOnUse" x="0" y="0" width="165" height="243">
<path d="M8.21899 199.779H63.2707V48.5067C56.0338 50.1651 49.0555 52.3416 42.3355 55.0365C35.719 57.7313 29.6711 60.9962 24.1917 64.8311L0 30.1612C8.89098 24.5643 17.937 19.8484 27.1382 16.0134C36.4427 12.0749 45.7989 8.96545 55.2068 6.68522C64.718 4.30134 74.2293 2.59117 83.7406 1.5547C93.3553 0.518234 102.918 0 112.43 0L112.274 0.310941H112.43V199.779H165V243H8.21899V199.779Z" fill="black"/>
</mask>
<g mask="url(#mask0_294_1785)">
<rect x="-71.2217" y="-25.4324" width="287.56" height="312.637" fill="#E88431"/>
<path d="M206.211 201.35C206.211 235.04 178.899 262.352 145.208 262.352L145.208 174.966L206.211 174.966L206.211 201.35Z" fill="#F4BF60"/>
<path d="M144.759 175.353L84.2015 175.353L84.2015 148.524C84.2015 115.079 111.314 87.9664 144.759 87.9664L144.759 175.353Z" fill="#E7DCCF"/>
<rect x="145.208" y="262.352" width="60.5573" height="87.3862" transform="rotate(-180 145.208 262.352)" fill="#E88431"/>
<path d="M84.6514 262.352L-71.5274 262.352C-119.789 262.352 -158.914 223.228 -158.914 174.966L84.6514 174.966L84.6514 262.352Z" fill="#0F2F47"/>
<rect x="251.629" y="174.966" width="106.421" height="87.3862" transform="rotate(-180 251.629 174.966)" fill="#D74339"/>
<rect x="206.211" y="87.5798" width="61.0025" height="87.3862" transform="rotate(-180 206.211 87.5798)" fill="#D74339"/>
<rect x="145.208" y="87.5798" width="60.5573" height="87.3862" transform="rotate(-180 145.208 87.5798)" fill="#F4BF60"/>
<rect x="175.933" y="218.659" width="61.0025" height="87.3862" rx="30.5013" transform="rotate(-180 175.933 218.659)" fill="#0F2F47"/>
<rect x="143.878" y="131.019" width="43.6931" height="106.866" transform="rotate(-90 143.878 131.019)" fill="#E7DCCF"/>
<path d="M84.6514 262.352C50.9606 262.352 23.6488 235.04 23.6488 201.35L23.6488 87.5798L84.6514 87.5798L84.6514 262.352Z" fill="#F4BF60"/>
<rect x="84.6514" y="131.273" width="122.005" height="131.079" transform="rotate(-180 84.6514 131.273)" fill="#D74339"/>
<path d="M23.6481 65.733L84.6506 131.273L-37.3545 131.273L23.6481 65.733Z" fill="#F4BF60"/>
</g>
</svg>
