<svg width="212" height="243" viewBox="0 0 212 243" fill="none" xmlns="http://www.w3.org/2000/svg">
<mask id="mask0_294_1701" style="mask-type:alpha" maskUnits="userSpaceOnUse" x="0" y="0" width="212" height="243">
<path d="M5.67513 200.93L90.1885 142.952C102.868 134.26 113.247 126.693 121.325 120.251C129.403 113.809 135.743 108.083 140.344 103.073C144.946 97.9599 148.116 93.3584 149.854 89.2682C151.592 85.1781 152.462 81.0879 152.462 76.9977C152.462 72.294 151.49 67.897 149.547 63.8069C147.604 59.7167 144.537 56.1378 140.344 53.0701C136.254 50.0025 130.937 47.5995 124.393 45.8612C117.951 44.1229 110.23 43.2537 101.232 43.2537C88.1435 43.2537 75.106 45.0943 62.1197 48.7754C49.1333 52.4566 35.8914 58.3362 22.3938 66.4144L0 29.6027C15.0314 20.2975 31.2899 13.0375 48.7754 7.82248C66.3632 2.60749 84.8202 0 104.146 0C121.018 0 135.641 2.04509 148.014 6.13527C160.489 10.1232 170.765 15.5938 178.843 22.5471C187.024 29.5004 193.108 37.5786 197.096 46.7815C201.084 55.9844 203.078 65.7497 203.078 76.0774C203.078 84.0533 201.748 91.6712 199.09 98.9313C196.431 106.191 191.778 113.707 185.132 121.478C178.485 129.25 169.487 137.635 158.137 146.633C146.889 155.529 132.675 165.652 115.497 177.003L80.5255 200.01H211.82V242.65H5.67513V200.93Z" fill="black"/>
</mask>
<g mask="url(#mask0_294_1701)">
<path d="M166.428 -3.37409C194.44 -3.37409 217.149 19.3349 217.149 47.3478L144.675 47.3478L144.675 -3.37409L166.428 -3.37409Z" fill="#D74339"/>
<path d="M144.464 47.1901L144.464 97.5417L122.341 97.5417C94.5326 97.5417 71.9894 74.9985 71.9894 47.1901L144.464 47.1901Z" fill="#E7DCCF"/>
<rect x="217.149" y="47.3478" width="50.3516" height="72.4744" transform="rotate(90 217.149 47.3478)" fill="#E88431"/>
<path d="M217 98L217 200C217 255.228 172.228 300 117 300L106 300L106 98L217 98Z" fill="#E88431"/>
<rect x="144.675" y="-41.1378" width="88.4856" height="72.4744" transform="rotate(90 144.675 -41.1378)" fill="#D74339"/>
<rect x="72.2002" y="-3.37402" width="50.7219" height="72.4744" transform="rotate(90 72.2002 -3.37402)" fill="#D74339"/>
<rect x="217.149" y="199.143" width="50.3516" height="72.4744" transform="rotate(90 217.149 199.143)" fill="#D74339"/>
<rect x="72.2002" y="47.3478" width="50.3516" height="72.4744" transform="rotate(90 72.2002 47.3478)" fill="#F4BF60"/>
<rect x="144.675" y="199.143" width="50.3516" height="144.949" transform="rotate(90 144.675 199.143)" fill="#E88431"/>
<rect x="180.912" y="21.8018" width="50.7219" height="72.4744" rx="25.3609" transform="rotate(90 180.912 21.8018)" fill="#F4BF60"/>
<rect x="108.438" y="224.319" width="50.7219" height="72.4744" rx="25.3609" transform="rotate(90 108.438 224.319)" fill="#0F2F47"/>
<rect x="108.228" y="48.4542" width="36.2372" height="88.8558" transform="rotate(-180 108.228 48.4542)" fill="#E7DCCF"/>
<path d="M217.149 97.6993C217.149 125.712 194.44 148.421 166.428 148.421L72.2005 148.421L72.2005 97.6993L217.149 97.6993Z" fill="#F4BF60"/>
<rect x="108.438" y="97.6995" width="101.444" height="108.712" transform="rotate(90 108.438 97.6995)" fill="#0F2F47"/>
<path d="M54.082 148.421L108.438 97.6994L108.438 199.143L54.082 148.421Z" fill="#D74339"/>
</g>
</svg>
