<svg xmlns="http://www.w3.org/2000/svg" id="icons">
    <g id="icon_search" viewBox="0 0 40 40"><path d="M37.4 39.5c-.6 0-1.1-.3-1.6-.7L28 31.1c-1.1.8-2.6 1.7-3.8 2.3-4.1 1.7-8.9 1.7-13.2 0-2.1-.8-4-2.1-5.5-3.7-1.6-1.5-2.8-3.4-3.7-5.5S.6 20 .6 17.7c-.1-4.8 1.6-9 4.8-12.2S12.9.6 17.6.6s8.9 1.8 12.1 4.9 5 7.5 5 12.1c0 2.3-.4 4.5-1.3 6.5-.6 1.4-1.3 2.7-2.3 3.8l7.8 7.7c.4.4.7 1 .7 1.5 0 .6-.3 1.1-.7 1.5-.5.5-.9.9-1.5.9zM17.6 4.9c-3.4 0-6.7 1.4-8.9 3.8C6.2 11.1 5 14.2 5 17.6c0 1.7.3 3.2 1 4.8s1.6 3 2.7 4.1c1.1 1.1 2.6 2.1 4.1 2.7 3.1 1.3 6.7 1.3 9.6 0 1.6-.7 3-1.5 4.1-2.7 1.1-1.1 2.1-2.5 2.7-4.1.7-1.5 1-3.1 1-4.8 0-3.4-1.3-6.5-3.7-8.9S21 4.9 17.6 4.9z"/></g>
    <g id="icon_location" viewBox="0 0 32 40"><path d="M16.1,39.5l-1.4-1.2C13.3,36.9,0.4,24.4,0.4,16.1C0.4,11.9,2,8,4.9,5.1S11.8,0.5,16,0.5s8.1,1.6,11.1,4.6s4.6,6.9,4.6,11.1 c0,8.2-12.9,20.7-14.4,22.1L16.1,39.5z M16.1,4.3c-3.2,0-6.2,1.2-8.4,3.4s-3.4,5.2-3.4,8.4c0,4.9,7.6,13.7,11.8,18 c4.2-4.3,11.8-13,11.8-18c0-3.2-1.2-6.2-3.4-8.4S19.3,4.3,16.1,4.3z"/><path d="M16.1,19.8c-1,0-2-0.4-2.6-1.1c-0.7-0.7-1.1-1.6-1.1-2.6s0.4-1.8,1.1-2.6c1.4-1.4,3.8-1.4,5.2,0c0.7,0.7,1.1,1.6,1.1,2.6 s-0.4,1.8-1.1,2.6C18,19.4,17.1,19.8,16.1,19.8z"/></g>
</svg>