<?xml version="1.0" encoding="UTF-8"?><svg xmlns="http://www.w3.org/2000/svg" viewBox="0 0 354.71 246.09"><g id="a"/><g id="b"><g id="c"><g id="d"><path d="M243.94,16.65c6.25,0,11.63,2.27,16.13,6.79,4.5,4.53,6.75,9.92,6.75,16.17s-2.23,11.57-6.7,15.93c-4.47,4.37-9.86,6.56-16.17,6.56s-11.98-2.12-16.22-6.36c-4.24-4.24-6.36-9.65-6.36-16.22s2.2-11.79,6.6-16.22c4.4-4.43,9.73-6.65,15.98-6.65Zm0,54.55c6.25,0,11.63,2.27,16.13,6.79,4.5,4.53,6.75,9.92,6.75,16.17s-2.23,11.57-6.7,15.93c-4.47,4.37-9.86,6.56-16.17,6.56s-11.98-2.12-16.22-6.36c-4.24-4.24-6.36-9.65-6.36-16.22s2.2-11.79,6.6-16.22c4.4-4.43,9.73-6.65,15.98-6.65Z" style="fill:#f3be67;"/><path d="M106.17,143.3v72.22c0,9.01-2.72,16.36-8.16,22.04-5.44,5.68-12.47,8.52-21.09,8.52-10.39,0-18.32-4.73-23.81-14.18-3.38,5.1-7.01,8.73-10.87,10.91-3.87,2.18-8.65,3.27-14.33,3.27-9.01,0-15.92-2.84-20.72-8.52-4.8-5.68-7.2-13.86-7.2-24.54v-69.73H29.83v65.24c0,3.23,.26,5.36,.77,6.39s1.55,1.54,3.12,1.54c2.94,0,4.41-2.47,4.41-7.42v-65.76h29.83v65.24c0,3.14,.27,5.24,.81,6.32,.54,1.08,1.59,1.62,3.16,1.62,2.94,0,4.41-2.65,4.41-7.94v-65.24h29.83Z" style="fill:#e7dccf;"/><path d="M149.73,140.8c14.2,0,26.39,5.17,36.55,15.5,10.16,10.34,15.25,22.7,15.25,37.1s-5.12,27.09-15.36,37.32c-10.24,10.24-22.68,15.36-37.32,15.36s-26.96-5.14-37.25-15.43c-10.29-10.29-15.43-22.7-15.43-37.25s5.18-27.14,15.54-37.32c10.36-10.19,23.03-15.28,38.02-15.28Zm-.88,29.54c-6.12,0-11.34,2.25-15.65,6.76-4.31,4.51-6.47,9.94-6.47,16.31s2.17,11.81,6.5,16.31c4.33,4.51,9.54,6.76,15.61,6.76s11.4-2.24,15.69-6.72c4.29-4.48,6.43-9.93,6.43-16.35s-2.14-11.87-6.43-16.35c-4.29-4.48-9.51-6.72-15.69-6.72Z" style="fill:#e7dccf;"/><path d="M254.35,202.23c8.86-6.95,13.3-15.5,13.3-25.64s-3.58-18.15-10.73-24.61c-6.42-5.78-15.45-8.67-27.11-8.67h-38.28v100.29h29.83v-32.33c2.68,0,5.11,1.58,6.21,4.02l12.67,28.3h31.3l-17.19-41.37Zm-26.23-16.75h-6.76v-15.21h5.29c7.25,0,10.87,2.38,10.87,7.13,0,5.39-3.14,8.08-9.4,8.08Z" style="fill:#e7dccf;"/><path d="M55.47,0c-15.49,0-27.5,3.84-36.03,11.52C9.93,20.12,5.18,31.02,5.18,44.24s5.89,24.84,17.68,34.08L0,133.3H41.6l16.84-37.62c1.46-3.25,4.69-5.35,8.25-5.35v42.97h71.75l-32.1-66.65L138.44,0H55.47Zm11.23,56.05h-8.98c-8.33,0-12.5-3.58-12.5-10.74,0-6.31,4.82-9.47,14.45-9.47h7.03v20.21Z" style="fill:#f3be67;"/><path d="M191.53,133.3H123.74c-11.32,0-20.54-3.41-27.67-10.24-7.14-6.83-10.7-15.65-10.7-26.48,0-13.04,5.93-23,17.8-29.89-6.4-4.24-10.96-8.8-13.7-13.65-2.74-4.86-4.11-10.86-4.11-17.99,0-11.32,3.57-19.99,10.7-26.01C103.19,3.01,113.46,0,126.87,0h64.66V37.45h-59.03c-4.06,0-6.73,.32-8.03,.97s-1.94,1.95-1.94,3.92c0,3.69,3.1,5.53,9.32,5.53h59.67v37.45h-59.03c-3.94,0-6.58,.34-7.93,1.01-1.35,.68-2.03,2-2.03,3.97,0,3.69,3.32,5.53,9.96,5.53h59.03v37.45Z" style="fill:#e7dccf;"/><path d="M297.48,143.3v100.29h-29.83v-100.29h29.83Zm57.24,0l-26.45,45.48,26.3,54.81h-33.5l-22.7-55.4,25.72-44.89h30.64Z" style="fill:#e7dccf;"/></g></g></g></svg>