<?xml version="1.0" encoding="UTF-8"?><svg xmlns="http://www.w3.org/2000/svg" viewBox="0 0 745.74 133.3"><g id="a"/><g id="b"><g id="c"><g id="d"><path d="M243.94,16.65c6.25,0,11.63,2.27,16.13,6.79,4.5,4.53,6.75,9.92,6.75,16.17s-2.23,11.57-6.7,15.93c-4.47,4.37-9.86,6.56-16.17,6.56s-11.98-2.12-16.22-6.36c-4.24-4.24-6.36-9.65-6.36-16.22s2.2-11.79,6.6-16.22c4.4-4.43,9.73-6.65,15.98-6.65Zm0,54.55c6.25,0,11.63,2.27,16.13,6.79,4.5,4.53,6.75,9.92,6.75,16.17s-2.23,11.57-6.7,15.93c-4.47,4.37-9.86,6.56-16.17,6.56s-11.98-2.12-16.22-6.36c-4.24-4.24-6.36-9.65-6.36-16.22s2.2-11.79,6.6-16.22c4.4-4.43,9.73-6.65,15.98-6.65Z" style="fill:#f3be67;"/><path d="M55.47,0c-15.49,0-27.5,3.84-36.03,11.52C9.93,20.12,5.18,31.02,5.18,44.24s5.89,24.84,17.68,34.08L0,133.3H41.6l16.84-37.62c1.46-3.25,4.69-5.35,8.25-5.35v42.97h71.75l-32.1-66.65L138.44,0H55.47Zm11.23,56.05h-8.98c-8.33,0-12.5-3.58-12.5-10.74,0-6.31,4.82-9.47,14.45-9.47h7.03v20.21Z" style="fill:#f3be67;"/><path d="M191.53,133.3H123.74c-11.32,0-20.54-3.41-27.67-10.24-7.14-6.83-10.7-15.65-10.7-26.48,0-13.04,5.93-23,17.8-29.89-6.4-4.24-10.96-8.8-13.7-13.65-2.74-4.86-4.11-10.86-4.11-17.99,0-11.32,3.57-19.99,10.7-26.01C103.19,3.01,113.46,0,126.87,0h64.66V37.45h-59.03c-4.06,0-6.73,.32-8.03,.97s-1.94,1.95-1.94,3.92c0,3.69,3.1,5.53,9.32,5.53h59.67v37.45h-59.03c-3.94,0-6.58,.34-7.93,1.01-1.35,.68-2.03,2-2.03,3.97,0,3.69,3.32,5.53,9.96,5.53h59.03v37.45Z" style="fill:#e7dccf;"/><path d="M431.06,3.16V94.6c0,11.41-3.44,20.71-10.33,27.91-6.88,7.19-15.78,10.79-26.7,10.79-13.15,0-23.19-5.98-30.14-17.95-4.28,6.45-8.87,11.06-13.77,13.81-4.9,2.76-10.95,4.14-18.14,4.14-11.41,0-20.16-3.6-26.23-10.79-6.08-7.19-9.12-17.55-9.12-31.07V3.16h37.77V85.77c0,4.09,.33,6.79,.98,8.09s1.97,1.95,3.95,1.95c3.72,0,5.58-3.13,5.58-9.4V3.16h37.77V85.77c0,3.97,.34,6.64,1.02,8,.68,1.36,2.01,2.05,4,2.05,3.72,0,5.58-3.35,5.58-10.05V3.16h37.77Z" style="fill:#e7dccf;"/><path d="M486.22,0c17.98,0,33.41,6.54,46.28,19.63,12.87,13.09,19.3,28.74,19.3,46.98s-6.48,34.29-19.44,47.26c-12.96,12.96-28.71,19.44-47.26,19.44s-34.14-6.51-47.16-19.53c-13.02-13.02-19.53-28.74-19.53-47.16s6.56-34.36,19.67-47.26c13.12-12.9,29.16-19.35,48.14-19.35Zm-1.12,37.39c-7.75,0-14.36,2.85-19.81,8.56-5.46,5.71-8.19,12.59-8.19,20.65s2.74,14.95,8.23,20.65c5.49,5.71,12.08,8.56,19.77,8.56s14.43-2.84,19.86-8.51c5.43-5.67,8.14-12.57,8.14-20.7s-2.71-15.02-8.14-20.7c-5.43-5.67-12.05-8.51-19.86-8.51Z" style="fill:#e7dccf;"/><path d="M618.67,77.77c11.22-8.8,16.84-19.63,16.84-32.46s-4.53-22.98-13.58-31.16c-8.12-7.32-19.57-10.98-34.32-10.98h-48.46v126.98h37.77v-40.93c3.4,0,6.48,2,7.86,5.09l16.04,35.84h39.63l-21.77-52.37Zm-33.21-21.21h-8.56v-19.26h6.7c9.18,0,13.77,3.01,13.77,9.02,0,6.82-3.97,10.23-11.91,10.23Z" style="fill:#e7dccf;"/><path d="M673.28,3.16v126.98h-37.77V3.16h37.77Zm72.46,0l-33.49,57.58,33.3,69.39h-42.42l-28.74-70.14L706.95,3.16h38.79Z" style="fill:#e7dccf;"/></g></g></g></svg>